<?xml version="1.0" encoding="UTF-8"?>
<svg xmlns="http://www.w3.org/2000/svg"
     xmlns:xlink="http://www.w3.org/1999/xlink"
     xmlns:gadfly="http://www.gadflyjl.org/ns"
     version="1.2"
     width="141.42mm" height="100mm" viewBox="0 0 141.42 100"
     stroke="none"
     fill="#000000"
     stroke-width="0.3"
     font-size="3.88"
>
<g class="plotroot xscalable yscalable" id="img-f816bb9b-1">
  <g font-size="3.88" font-family="'PT Sans','Helvetica Neue','Helvetica',sans-serif" fill="rgba(86,73,85,1)" stroke="#000000" stroke-opacity="0.000" id="img-f816bb9b-2">
    <g transform="translate(78.03,88.39)">
      <g class="primitive">
        <text text-anchor="middle" dy="0.6em">Games trained on </text>
      </g>
    </g>
  </g>
  <g class="guide xlabels" font-size="2.82" font-family="'PT Sans Caption','Helvetica Neue','Helvetica',sans-serif" fill="rgba(108,96,107,1)" id="img-f816bb9b-3">
    <g transform="translate(21.63,81.72)">
      <g class="primitive">
        <text text-anchor="middle" dy="0.6em">0</text>
      </g>
    </g>
    <g transform="translate(44.19,81.72)">
      <g class="primitive">
        <text text-anchor="middle" dy="0.6em">100</text>
      </g>
    </g>
    <g transform="translate(66.75,81.72)">
      <g class="primitive">
        <text text-anchor="middle" dy="0.6em">200</text>
      </g>
    </g>
    <g transform="translate(89.31,81.72)">
      <g class="primitive">
        <text text-anchor="middle" dy="0.6em">300</text>
      </g>
    </g>
    <g transform="translate(111.86,81.72)">
      <g class="primitive">
        <text text-anchor="middle" dy="0.6em">400</text>
      </g>
    </g>
    <g transform="translate(134.42,81.72)">
      <g class="primitive">
        <text text-anchor="middle" dy="0.6em">500</text>
      </g>
    </g>
  </g>
  <g clip-path="url(#img-f816bb9b-4)">
    <g id="img-f816bb9b-5">
      <g pointer-events="visible" fill-opacity="0" fill="rgba(0,0,0,0)" stroke="#000000" stroke-opacity="0.000" class="guide background" id="img-f816bb9b-6">
        <g transform="translate(78.03,42.86)">
          <path d="M-58.39,-37.86 L 58.39 -37.86 58.39 37.86 -58.39 37.86 z" class="primitive"/>
        </g>
      </g>
      <g class="guide ygridlines xfixed" stroke-dasharray="0.5,0.5" stroke-width="0.2" stroke="#D0D0E0" id="img-f816bb9b-7">
        <g transform="translate(78.03,78.71)">
          <path fill="none" d="M-58.39,0 L 58.39 0" class="primitive"/>
        </g>
        <g transform="translate(78.03,42.86)">
          <path fill="none" d="M-58.39,0 L 58.39 0" class="primitive"/>
        </g>
        <g transform="translate(78.03,7)">
          <path fill="none" d="M-58.39,0 L 58.39 0" class="primitive"/>
        </g>
      </g>
      <g class="guide xgridlines yfixed" stroke-dasharray="0.5,0.5" stroke-width="0.2" stroke="#D0D0E0" id="img-f816bb9b-8">
        <g transform="translate(21.63,42.86)">
          <path fill="none" d="M0,-37.86 L 0 37.86" class="primitive"/>
        </g>
        <g transform="translate(44.19,42.86)">
          <path fill="none" d="M0,-37.86 L 0 37.86" class="primitive"/>
        </g>
        <g transform="translate(66.75,42.86)">
          <path fill="none" d="M0,-37.86 L 0 37.86" class="primitive"/>
        </g>
        <g transform="translate(89.31,42.86)">
          <path fill="none" d="M0,-37.86 L 0 37.86" class="primitive"/>
        </g>
        <g transform="translate(111.86,42.86)">
          <path fill="none" d="M0,-37.86 L 0 37.86" class="primitive"/>
        </g>
        <g transform="translate(134.42,42.86)">
          <path fill="none" d="M0,-37.86 L 0 37.86" class="primitive"/>
        </g>
      </g>
      <g class="plotpanel" id="img-f816bb9b-9">
        <metadata>
          <boundingbox value="19.631666666666675mm 5.0mm 116.78968957064284mm 75.715mm"/>
          <unitbox value="-8.866058624744031 102.78881684445373 517.732117249488 -105.5776336889075"/>
        </metadata>
        <g stroke-width="0.3" fill="rgba(0,0,0,0)" class="geometry" id="img-f816bb9b-10">
          <g class="color_LCHab{Float32}(70.0f0,60.0f0,240.0f0)" stroke-dasharray="none" stroke="#00BFFF" id="img-f816bb9b-11">
            <g transform="translate(79.27,23.05)">
              <path fill="none" d="M-55.15,9.79 L -54.93 9.86 -54.7 9.92 -54.48 9.98 -54.25 10.03 -54.03 10.09 -53.8 10.15 -53.58 10.2 -53.35 10.25 -53.12 10.31 -52.9 10.36 -52.67 10.41 -52.45 10.46 -52.22 10.5 -52 10.55 -51.77 10.59 -51.54 10.64 -51.32 10.68 -51.09 10.72 -50.87 10.76 -50.64 10.8 -50.42 10.83 -50.19 10.87 -49.97 10.91 -49.74 10.94 -49.51 10.97 -49.29 11 -49.06 11.04 -48.84 11.07 -48.61 11.09 -48.39 11.12 -48.16 11.15 -47.94 11.18 -47.71 11.21 -47.48 11.23 -47.26 11.25 -47.03 11.28 -46.81 11.3 -46.58 11.32 -46.36 11.34 -46.13 11.36 -45.91 11.38 -45.68 11.39 -45.45 11.41 -45.23 11.42 -45 11.44 -44.78 11.45 -44.55 11.46 -44.33 11.47 -44.1 11.48 -43.88 11.49 -43.65 11.5 -43.42 11.51 -43.2 11.51 -42.97 11.52 -42.75 11.52 -42.52 11.53 -42.3 11.53 -42.07 11.54 -41.84 11.54 -41.62 11.54 -41.39 11.54 -41.17 11.54 -40.94 11.54 -40.72 11.54 -40.49 11.54 -40.27 11.54 -40.04 11.54 -39.81 11.53 -39.59 11.52 -39.36 11.52 -39.14 11.51 -38.91 11.5 -38.69 11.49 -38.46 11.48 -38.24 11.47 -38.01 11.46 -37.78 11.44 -37.56 11.43 -37.33 11.41 -37.11 11.4 -36.88 11.38 -36.66 11.36 -36.43 11.34 -36.21 11.32 -35.98 11.3 -35.75 11.28 -35.53 11.26 -35.3 11.24 -35.08 11.21 -34.85 11.19 -34.63 11.16 -34.4 11.14 -34.18 11.11 -33.95 11.08 -33.72 11.05 -33.5 11.02 -33.27 10.99 -33.05 10.96 -32.82 10.93 -32.6 10.89 -32.37 10.86 -32.15 10.82 -31.92 10.78 -31.69 10.75 -31.47 10.71 -31.24 10.67 -31.02 10.63 -30.79 10.58 -30.57 10.54 -30.34 10.5 -30.11 10.45 -29.89 10.41 -29.66 10.36 -29.44 10.31 -29.21 10.26 -28.99 10.21 -28.76 10.16 -28.54 10.1 -28.31 10.05 -28.08 10 -27.86 9.94 -27.63 9.88 -27.41 9.82 -27.18 9.76 -26.96 9.7 -26.73 9.64 -26.51 9.57 -26.28 9.51 -26.05 9.44 -25.83 9.38 -25.6 9.31 -25.38 9.24 -25.15 9.17 -24.93 9.1 -24.7 9.03 -24.48 8.96 -24.25 8.89 -24.02 8.82 -23.8 8.74 -23.57 8.67 -23.35 8.59 -23.12 8.52 -22.9 8.44 -22.67 8.37 -22.45 8.29 -22.22 8.21 -21.99 8.14 -21.77 8.06 -21.54 7.98 -21.32 7.91 -21.09 7.85 -20.87 7.78 -20.64 7.72 -20.41 7.65 -20.19 7.58 -19.96 7.52 -19.74 7.45 -19.51 7.39 -19.29 7.32 -19.06 7.25 -18.84 7.19 -18.61 7.12 -18.38 7.05 -18.16 6.99 -17.93 6.92 -17.71 6.85 -17.48 6.79 -17.26 6.72 -17.03 6.65 -16.81 6.61 -16.58 6.56 -16.35 6.52 -16.13 6.48 -15.9 6.44 -15.68 6.4 -15.45 6.36 -15.23 6.32 -15 6.28 -14.78 6.24 -14.55 6.17 -14.32 6.11 -14.1 6.05 -13.87 5.98 -13.65 5.92 -13.42 5.86 -13.2 5.79 -12.97 5.73 -12.75 5.67 -12.52 5.6 -12.29 5.54 -12.07 5.48 -11.84 5.42 -11.62 5.35 -11.39 5.29 -11.17 5.23 -10.94 5.17 -10.72 5.1 -10.49 5.04 -10.26 4.98 -10.04 4.9 -9.81 4.83 -9.59 4.76 -9.36 4.68 -9.14 4.61 -8.91 4.54 -8.68 4.46 -8.46 4.39 -8.23 4.31 -8.01 4.24 -7.78 4.17 -7.56 4.09 -7.33 4.02 -7.11 3.94 -6.88 3.87 -6.65 3.8 -6.43 3.72 -6.2 3.65 -5.98 3.58 -5.75 3.5 -5.53 3.43 -5.3 3.36 -5.08 3.28 -4.85 3.21 -4.62 3.14 -4.4 3.04 -4.17 2.94 -3.95 2.84 -3.72 2.74 -3.5 2.63 -3.27 2.53 -3.05 2.43 -2.82 2.32 -2.59 2.22 -2.37 2.11 -2.14 2 -1.92 1.9 -1.69 1.79 -1.47 1.68 -1.24 1.58 -1.02 1.47 -0.79 1.36 -0.56 1.26 -0.34 1.15 -0.11 1.04 0.11 0.94 0.34 0.84 0.56 0.74 0.79 0.63 1.02 0.53 1.24 0.42 1.47 0.31 1.69 0.19 1.92 0.08 2.14 -0.04 2.37 -0.16 2.59 -0.28 2.82 -0.4 3.05 -0.52 3.27 -0.64 3.5 -0.77 3.72 -0.89 3.95 -1.02 4.17 -1.14 4.4 -1.27 4.62 -1.4 4.85 -1.52 5.08 -1.65 5.3 -1.78 5.53 -1.91 5.75 -2.03 5.98 -2.16 6.2 -2.29 6.43 -2.42 6.65 -2.55 6.88 -2.63 7.11 -2.71 7.33 -2.8 7.56 -2.88 7.78 -2.96 8.01 -3.06 8.23 -3.15 8.46 -3.25 8.68 -3.34 8.91 -3.43 9.14 -3.53 9.36 -3.62 9.59 -3.71 9.81 -3.81 10.04 -3.9 10.26 -3.99 10.49 -4.08 10.72 -4.17 10.94 -4.26 11.17 -4.35 11.39 -4.44 11.62 -4.53 11.84 -4.62 12.07 -4.71 12.29 -4.8 12.52 -4.89 12.75 -4.98 12.97 -5.07 13.2 -5.15 13.42 -5.24 13.65 -5.32 13.87 -5.4 14.1 -5.47 14.32 -5.55 14.55 -5.63 14.78 -5.71 15 -5.79 15.23 -5.87 15.45 -5.95 15.68 -6.03 15.9 -6.11 16.13 -6.19 16.35 -6.27 16.58 -6.34 16.81 -6.42 17.03 -6.5 17.26 -6.58 17.48 -6.65 17.71 -6.73 17.93 -6.8 18.16 -6.88 18.38 -6.95 18.61 -7.03 18.84 -7.1 19.06 -7.18 19.29 -7.25 19.51 -7.32 19.74 -7.39 19.96 -7.47 20.19 -7.54 20.41 -7.61 20.64 -7.69 20.87 -7.76 21.09 -7.83 21.32 -7.91 21.54 -7.98 21.77 -8.05 21.99 -8.13 22.22 -8.2 22.45 -8.27 22.67 -8.34 22.9 -8.41 23.12 -8.48 23.35 -8.55 23.57 -8.62 23.8 -8.69 24.02 -8.75 24.25 -8.82 24.48 -8.89 24.7 -8.95 24.93 -9.02 25.15 -9.08 25.38 -9.15 25.6 -9.21 25.83 -9.27 26.05 -9.33 26.28 -9.4 26.51 -9.46 26.73 -9.52 26.96 -9.58 27.18 -9.64 27.41 -9.7 27.63 -9.76 27.86 -9.81 28.08 -9.87 28.31 -9.93 28.54 -9.99 28.76 -10.04 28.99 -10.1 29.21 -10.15 29.44 -10.21 29.66 -10.26 29.89 -10.31 30.11 -10.37 30.34 -10.42 30.57 -10.47 30.79 -10.52 31.02 -10.57 31.24 -10.62 31.47 -10.67 31.69 -10.71 31.92 -10.76 32.15 -10.81 32.37 -10.85 32.6 -10.9 32.82 -10.94 33.05 -10.99 33.27 -11.03 33.5 -11.07 33.72 -11.12 33.95 -11.16 34.18 -11.2 34.4 -11.24 34.63 -11.28 34.85 -11.32 35.08 -11.36 35.3 -11.4 35.53 -11.43 35.75 -11.47 35.98 -11.51 36.21 -11.54 36.43 -11.58 36.66 -11.61 36.88 -11.65 37.11 -11.68 37.33 -11.71 37.56 -11.75 37.78 -11.78 38.01 -11.81 38.24 -11.84 38.46 -11.87 38.69 -11.89 38.91 -11.92 39.14 -11.95 39.36 -11.97 39.59 -12 39.81 -12.03 40.04 -12.05 40.27 -12.07 40.49 -12.1 40.72 -12.12 40.94 -12.14 41.17 -12.16 41.39 -12.18 41.62 -12.2 41.84 -12.22 42.07 -12.24 42.3 -12.26 42.52 -12.27 42.75 -12.29 42.97 -12.31 43.2 -12.32 43.42 -12.34 43.65 -12.35 43.88 -12.36 44.1 -12.37 44.33 -12.38 44.55 -12.39 44.78 -12.4 45 -12.41 45.23 -12.42 45.45 -12.43 45.68 -12.43 45.91 -12.44 46.13 -12.44 46.36 -12.45 46.58 -12.45 46.81 -12.45 47.03 -12.45 47.26 -12.46 47.48 -12.46 47.71 -12.46 47.94 -12.45 48.16 -12.45 48.39 -12.45 48.61 -12.45 48.84 -12.44 49.06 -12.44 49.29 -12.43 49.51 -12.42 49.74 -12.41 49.97 -12.4 50.19 -12.39 50.42 -12.38 50.64 -12.37 50.87 -12.36 51.09 -12.35 51.32 -12.33 51.54 -12.32 51.77 -12.3 52 -12.28 52.22 -12.26 52.45 -12.25 52.67 -12.23 52.9 -12.21 53.12 -12.18 53.35 -12.16 53.58 -12.14 53.8 -12.11 54.03 -12.09 54.25 -12.06 54.48 -12.03 54.7 -12.01 54.93 -11.98 55.15 -11.95" class="primitive"/>
            </g>
          </g>
        </g>
        <g class="geometry" id="img-f816bb9b-12">
          <g stroke-width="0.3" id="img-f816bb9b-13">
            <g class="color_RGBA{Float32}(0.0f0,0.74736935f0,1.0f0,1.0f0)" stroke="#FFFFFF" fill="rgba(0,190,255,1)" id="img-f816bb9b-14">
              <g class="marker" id="img-f816bb9b-15">
                <g transform="translate(134.42,17.76)">
                  <circle cx="0" cy="0" r="0.9" class="primitive"/>
                </g>
              </g>
            </g>
            <g class="color_RGBA{Float32}(0.0f0,0.74736935f0,1.0f0,1.0f0)" stroke="#FFFFFF" fill="rgba(0,190,255,1)" id="img-f816bb9b-16">
              <g class="marker" id="img-f816bb9b-17">
                <g transform="translate(132.17,10.59)">
                  <circle cx="0" cy="0" r="0.9" class="primitive"/>
                </g>
              </g>
            </g>
            <g class="color_RGBA{Float32}(0.0f0,0.74736935f0,1.0f0,1.0f0)" stroke="#FFFFFF" fill="rgba(0,190,255,1)" id="img-f816bb9b-18">
              <g class="marker" id="img-f816bb9b-19">
                <g transform="translate(129.91,7)">
                  <circle cx="0" cy="0" r="0.9" class="primitive"/>
                </g>
              </g>
            </g>
            <g class="color_RGBA{Float32}(0.0f0,0.74736935f0,1.0f0,1.0f0)" stroke="#FFFFFF" fill="rgba(0,190,255,1)" id="img-f816bb9b-20">
              <g class="marker" id="img-f816bb9b-21">
                <g transform="translate(127.65,7)">
                  <circle cx="0" cy="0" r="0.9" class="primitive"/>
                </g>
              </g>
            </g>
            <g class="color_RGBA{Float32}(0.0f0,0.74736935f0,1.0f0,1.0f0)" stroke="#FFFFFF" fill="rgba(0,190,255,1)" id="img-f816bb9b-22">
              <g class="marker" id="img-f816bb9b-23">
                <g transform="translate(125.4,10.59)">
                  <circle cx="0" cy="0" r="0.9" class="primitive"/>
                </g>
              </g>
            </g>
            <g class="color_RGBA{Float32}(0.0f0,0.74736935f0,1.0f0,1.0f0)" stroke="#FFFFFF" fill="rgba(0,190,255,1)" id="img-f816bb9b-24">
              <g class="marker" id="img-f816bb9b-25">
                <g transform="translate(123.14,7)">
                  <circle cx="0" cy="0" r="0.9" class="primitive"/>
                </g>
              </g>
            </g>
            <g class="color_RGBA{Float32}(0.0f0,0.74736935f0,1.0f0,1.0f0)" stroke="#FFFFFF" fill="rgba(0,190,255,1)" id="img-f816bb9b-26">
              <g class="marker" id="img-f816bb9b-27">
                <g transform="translate(120.89,17.76)">
                  <circle cx="0" cy="0" r="0.9" class="primitive"/>
                </g>
              </g>
            </g>
            <g class="color_RGBA{Float32}(0.0f0,0.74736935f0,1.0f0,1.0f0)" stroke="#FFFFFF" fill="rgba(0,190,255,1)" id="img-f816bb9b-28">
              <g class="marker" id="img-f816bb9b-29">
                <g transform="translate(118.63,10.59)">
                  <circle cx="0" cy="0" r="0.9" class="primitive"/>
                </g>
              </g>
            </g>
            <g class="color_RGBA{Float32}(0.0f0,0.74736935f0,1.0f0,1.0f0)" stroke="#FFFFFF" fill="rgba(0,190,255,1)" id="img-f816bb9b-30">
              <g class="marker" id="img-f816bb9b-31">
                <g transform="translate(116.38,7)">
                  <circle cx="0" cy="0" r="0.9" class="primitive"/>
                </g>
              </g>
            </g>
            <g class="color_RGBA{Float32}(0.0f0,0.74736935f0,1.0f0,1.0f0)" stroke="#FFFFFF" fill="rgba(0,190,255,1)" id="img-f816bb9b-32">
              <g class="marker" id="img-f816bb9b-33">
                <g transform="translate(114.12,10.59)">
                  <circle cx="0" cy="0" r="0.9" class="primitive"/>
                </g>
              </g>
            </g>
            <g class="color_RGBA{Float32}(0.0f0,0.74736935f0,1.0f0,1.0f0)" stroke="#FFFFFF" fill="rgba(0,190,255,1)" id="img-f816bb9b-34">
              <g class="marker" id="img-f816bb9b-35">
                <g transform="translate(111.86,10.59)">
                  <circle cx="0" cy="0" r="0.9" class="primitive"/>
                </g>
              </g>
            </g>
            <g class="color_RGBA{Float32}(0.0f0,0.74736935f0,1.0f0,1.0f0)" stroke="#FFFFFF" fill="rgba(0,190,255,1)" id="img-f816bb9b-36">
              <g class="marker" id="img-f816bb9b-37">
                <g transform="translate(109.61,10.59)">
                  <circle cx="0" cy="0" r="0.9" class="primitive"/>
                </g>
              </g>
            </g>
            <g class="color_RGBA{Float32}(0.0f0,0.74736935f0,1.0f0,1.0f0)" stroke="#FFFFFF" fill="rgba(0,190,255,1)" id="img-f816bb9b-38">
              <g class="marker" id="img-f816bb9b-39">
                <g transform="translate(107.35,14.17)">
                  <circle cx="0" cy="0" r="0.9" class="primitive"/>
                </g>
              </g>
            </g>
            <g class="color_RGBA{Float32}(0.0f0,0.74736935f0,1.0f0,1.0f0)" stroke="#FFFFFF" fill="rgba(0,190,255,1)" id="img-f816bb9b-40">
              <g class="marker" id="img-f816bb9b-41">
                <g transform="translate(105.1,7)">
                  <circle cx="0" cy="0" r="0.9" class="primitive"/>
                </g>
              </g>
            </g>
            <g class="color_RGBA{Float32}(0.0f0,0.74736935f0,1.0f0,1.0f0)" stroke="#FFFFFF" fill="rgba(0,190,255,1)" id="img-f816bb9b-42">
              <g class="marker" id="img-f816bb9b-43">
                <g transform="translate(102.84,17.76)">
                  <circle cx="0" cy="0" r="0.9" class="primitive"/>
                </g>
              </g>
            </g>
            <g class="color_RGBA{Float32}(0.0f0,0.74736935f0,1.0f0,1.0f0)" stroke="#FFFFFF" fill="rgba(0,190,255,1)" id="img-f816bb9b-44">
              <g class="marker" id="img-f816bb9b-45">
                <g transform="translate(100.58,21.34)">
                  <circle cx="0" cy="0" r="0.9" class="primitive"/>
                </g>
              </g>
            </g>
            <g class="color_RGBA{Float32}(0.0f0,0.74736935f0,1.0f0,1.0f0)" stroke="#FFFFFF" fill="rgba(0,190,255,1)" id="img-f816bb9b-46">
              <g class="marker" id="img-f816bb9b-47">
                <g transform="translate(98.33,21.34)">
                  <circle cx="0" cy="0" r="0.9" class="primitive"/>
                </g>
              </g>
            </g>
            <g class="color_RGBA{Float32}(0.0f0,0.74736935f0,1.0f0,1.0f0)" stroke="#FFFFFF" fill="rgba(0,190,255,1)" id="img-f816bb9b-48">
              <g class="marker" id="img-f816bb9b-49">
                <g transform="translate(96.07,24.93)">
                  <circle cx="0" cy="0" r="0.9" class="primitive"/>
                </g>
              </g>
            </g>
            <g class="color_RGBA{Float32}(0.0f0,0.74736935f0,1.0f0,1.0f0)" stroke="#FFFFFF" fill="rgba(0,190,255,1)" id="img-f816bb9b-50">
              <g class="marker" id="img-f816bb9b-51">
                <g transform="translate(93.82,7)">
                  <circle cx="0" cy="0" r="0.9" class="primitive"/>
                </g>
              </g>
            </g>
            <g class="color_RGBA{Float32}(0.0f0,0.74736935f0,1.0f0,1.0f0)" stroke="#FFFFFF" fill="rgba(0,190,255,1)" id="img-f816bb9b-52">
              <g class="marker" id="img-f816bb9b-53">
                <g transform="translate(91.56,17.76)">
                  <circle cx="0" cy="0" r="0.9" class="primitive"/>
                </g>
              </g>
            </g>
            <g class="color_RGBA{Float32}(0.0f0,0.74736935f0,1.0f0,1.0f0)" stroke="#FFFFFF" fill="rgba(0,190,255,1)" id="img-f816bb9b-54">
              <g class="marker" id="img-f816bb9b-55">
                <g transform="translate(89.31,24.93)">
                  <circle cx="0" cy="0" r="0.9" class="primitive"/>
                </g>
              </g>
            </g>
            <g class="color_RGBA{Float32}(0.0f0,0.74736935f0,1.0f0,1.0f0)" stroke="#FFFFFF" fill="rgba(0,190,255,1)" id="img-f816bb9b-56">
              <g class="marker" id="img-f816bb9b-57">
                <g transform="translate(87.05,10.59)">
                  <circle cx="0" cy="0" r="0.9" class="primitive"/>
                </g>
              </g>
            </g>
            <g class="color_RGBA{Float32}(0.0f0,0.74736935f0,1.0f0,1.0f0)" stroke="#FFFFFF" fill="rgba(0,190,255,1)" id="img-f816bb9b-58">
              <g class="marker" id="img-f816bb9b-59">
                <g transform="translate(84.79,32.1)">
                  <circle cx="0" cy="0" r="0.9" class="primitive"/>
                </g>
              </g>
            </g>
            <g class="color_RGBA{Float32}(0.0f0,0.74736935f0,1.0f0,1.0f0)" stroke="#FFFFFF" fill="rgba(0,190,255,1)" id="img-f816bb9b-60">
              <g class="marker" id="img-f816bb9b-61">
                <g transform="translate(82.54,17.76)">
                  <circle cx="0" cy="0" r="0.9" class="primitive"/>
                </g>
              </g>
            </g>
            <g class="color_RGBA{Float32}(0.0f0,0.74736935f0,1.0f0,1.0f0)" stroke="#FFFFFF" fill="rgba(0,190,255,1)" id="img-f816bb9b-62">
              <g class="marker" id="img-f816bb9b-63">
                <g transform="translate(80.28,7)">
                  <circle cx="0" cy="0" r="0.9" class="primitive"/>
                </g>
              </g>
            </g>
            <g class="color_RGBA{Float32}(0.0f0,0.74736935f0,1.0f0,1.0f0)" stroke="#FFFFFF" fill="rgba(0,190,255,1)" id="img-f816bb9b-64">
              <g class="marker" id="img-f816bb9b-65">
                <g transform="translate(78.03,17.76)">
                  <circle cx="0" cy="0" r="0.9" class="primitive"/>
                </g>
              </g>
            </g>
            <g class="color_RGBA{Float32}(0.0f0,0.74736935f0,1.0f0,1.0f0)" stroke="#FFFFFF" fill="rgba(0,190,255,1)" id="img-f816bb9b-66">
              <g class="marker" id="img-f816bb9b-67">
                <g transform="translate(75.77,42.86)">
                  <circle cx="0" cy="0" r="0.9" class="primitive"/>
                </g>
              </g>
            </g>
            <g class="color_RGBA{Float32}(0.0f0,0.74736935f0,1.0f0,1.0f0)" stroke="#FFFFFF" fill="rgba(0,190,255,1)" id="img-f816bb9b-68">
              <g class="marker" id="img-f816bb9b-69">
                <g transform="translate(73.51,24.93)">
                  <circle cx="0" cy="0" r="0.9" class="primitive"/>
                </g>
              </g>
            </g>
            <g class="color_RGBA{Float32}(0.0f0,0.74736935f0,1.0f0,1.0f0)" stroke="#FFFFFF" fill="rgba(0,190,255,1)" id="img-f816bb9b-70">
              <g class="marker" id="img-f816bb9b-71">
                <g transform="translate(71.26,17.76)">
                  <circle cx="0" cy="0" r="0.9" class="primitive"/>
                </g>
              </g>
            </g>
            <g class="color_RGBA{Float32}(0.0f0,0.74736935f0,1.0f0,1.0f0)" stroke="#FFFFFF" fill="rgba(0,190,255,1)" id="img-f816bb9b-72">
              <g class="marker" id="img-f816bb9b-73">
                <g transform="translate(69,42.86)">
                  <circle cx="0" cy="0" r="0.9" class="primitive"/>
                </g>
              </g>
            </g>
            <g class="color_RGBA{Float32}(0.0f0,0.74736935f0,1.0f0,1.0f0)" stroke="#FFFFFF" fill="rgba(0,190,255,1)" id="img-f816bb9b-74">
              <g class="marker" id="img-f816bb9b-75">
                <g transform="translate(66.75,32.1)">
                  <circle cx="0" cy="0" r="0.9" class="primitive"/>
                </g>
              </g>
            </g>
            <g class="color_RGBA{Float32}(0.0f0,0.74736935f0,1.0f0,1.0f0)" stroke="#FFFFFF" fill="rgba(0,190,255,1)" id="img-f816bb9b-76">
              <g class="marker" id="img-f816bb9b-77">
                <g transform="translate(64.49,39.27)">
                  <circle cx="0" cy="0" r="0.9" class="primitive"/>
                </g>
              </g>
            </g>
            <g class="color_RGBA{Float32}(0.0f0,0.74736935f0,1.0f0,1.0f0)" stroke="#FFFFFF" fill="rgba(0,190,255,1)" id="img-f816bb9b-78">
              <g class="marker" id="img-f816bb9b-79">
                <g transform="translate(62.24,24.93)">
                  <circle cx="0" cy="0" r="0.9" class="primitive"/>
                </g>
              </g>
            </g>
            <g class="color_RGBA{Float32}(0.0f0,0.74736935f0,1.0f0,1.0f0)" stroke="#FFFFFF" fill="rgba(0,190,255,1)" id="img-f816bb9b-80">
              <g class="marker" id="img-f816bb9b-81">
                <g transform="translate(59.98,39.27)">
                  <circle cx="0" cy="0" r="0.9" class="primitive"/>
                </g>
              </g>
            </g>
            <g class="color_RGBA{Float32}(0.0f0,0.74736935f0,1.0f0,1.0f0)" stroke="#FFFFFF" fill="rgba(0,190,255,1)" id="img-f816bb9b-82">
              <g class="marker" id="img-f816bb9b-83">
                <g transform="translate(57.72,24.93)">
                  <circle cx="0" cy="0" r="0.9" class="primitive"/>
                </g>
              </g>
            </g>
            <g class="color_RGBA{Float32}(0.0f0,0.74736935f0,1.0f0,1.0f0)" stroke="#FFFFFF" fill="rgba(0,190,255,1)" id="img-f816bb9b-84">
              <g class="marker" id="img-f816bb9b-85">
                <g transform="translate(55.47,14.17)">
                  <circle cx="0" cy="0" r="0.9" class="primitive"/>
                </g>
              </g>
            </g>
            <g class="color_RGBA{Float32}(0.0f0,0.74736935f0,1.0f0,1.0f0)" stroke="#FFFFFF" fill="rgba(0,190,255,1)" id="img-f816bb9b-86">
              <g class="marker" id="img-f816bb9b-87">
                <g transform="translate(53.21,28.51)">
                  <circle cx="0" cy="0" r="0.9" class="primitive"/>
                </g>
              </g>
            </g>
            <g class="color_RGBA{Float32}(0.0f0,0.74736935f0,1.0f0,1.0f0)" stroke="#FFFFFF" fill="rgba(0,190,255,1)" id="img-f816bb9b-88">
              <g class="marker" id="img-f816bb9b-89">
                <g transform="translate(50.96,21.34)">
                  <circle cx="0" cy="0" r="0.9" class="primitive"/>
                </g>
              </g>
            </g>
            <g class="color_RGBA{Float32}(0.0f0,0.74736935f0,1.0f0,1.0f0)" stroke="#FFFFFF" fill="rgba(0,190,255,1)" id="img-f816bb9b-90">
              <g class="marker" id="img-f816bb9b-91">
                <g transform="translate(48.7,39.27)">
                  <circle cx="0" cy="0" r="0.9" class="primitive"/>
                </g>
              </g>
            </g>
            <g class="color_RGBA{Float32}(0.0f0,0.74736935f0,1.0f0,1.0f0)" stroke="#FFFFFF" fill="rgba(0,190,255,1)" id="img-f816bb9b-92">
              <g class="marker" id="img-f816bb9b-93">
                <g transform="translate(46.45,35.69)">
                  <circle cx="0" cy="0" r="0.9" class="primitive"/>
                </g>
              </g>
            </g>
            <g class="color_RGBA{Float32}(0.0f0,0.74736935f0,1.0f0,1.0f0)" stroke="#FFFFFF" fill="rgba(0,190,255,1)" id="img-f816bb9b-94">
              <g class="marker" id="img-f816bb9b-95">
                <g transform="translate(44.19,46.44)">
                  <circle cx="0" cy="0" r="0.9" class="primitive"/>
                </g>
              </g>
            </g>
            <g class="color_RGBA{Float32}(0.0f0,0.74736935f0,1.0f0,1.0f0)" stroke="#FFFFFF" fill="rgba(0,190,255,1)" id="img-f816bb9b-96">
              <g class="marker" id="img-f816bb9b-97">
                <g transform="translate(41.93,28.51)">
                  <circle cx="0" cy="0" r="0.9" class="primitive"/>
                </g>
              </g>
            </g>
            <g class="color_RGBA{Float32}(0.0f0,0.74736935f0,1.0f0,1.0f0)" stroke="#FFFFFF" fill="rgba(0,190,255,1)" id="img-f816bb9b-98">
              <g class="marker" id="img-f816bb9b-99">
                <g transform="translate(39.68,42.86)">
                  <circle cx="0" cy="0" r="0.9" class="primitive"/>
                </g>
              </g>
            </g>
            <g class="color_RGBA{Float32}(0.0f0,0.74736935f0,1.0f0,1.0f0)" stroke="#FFFFFF" fill="rgba(0,190,255,1)" id="img-f816bb9b-100">
              <g class="marker" id="img-f816bb9b-101">
                <g transform="translate(37.42,24.93)">
                  <circle cx="0" cy="0" r="0.9" class="primitive"/>
                </g>
              </g>
            </g>
            <g class="color_RGBA{Float32}(0.0f0,0.74736935f0,1.0f0,1.0f0)" stroke="#FFFFFF" fill="rgba(0,190,255,1)" id="img-f816bb9b-102">
              <g class="marker" id="img-f816bb9b-103">
                <g transform="translate(35.17,28.51)">
                  <circle cx="0" cy="0" r="0.9" class="primitive"/>
                </g>
              </g>
            </g>
            <g class="color_RGBA{Float32}(0.0f0,0.74736935f0,1.0f0,1.0f0)" stroke="#FFFFFF" fill="rgba(0,190,255,1)" id="img-f816bb9b-104">
              <g class="marker" id="img-f816bb9b-105">
                <g transform="translate(32.91,50.03)">
                  <circle cx="0" cy="0" r="0.9" class="primitive"/>
                </g>
              </g>
            </g>
            <g class="color_RGBA{Float32}(0.0f0,0.74736935f0,1.0f0,1.0f0)" stroke="#FFFFFF" fill="rgba(0,190,255,1)" id="img-f816bb9b-106">
              <g class="marker" id="img-f816bb9b-107">
                <g transform="translate(30.65,57.2)">
                  <circle cx="0" cy="0" r="0.9" class="primitive"/>
                </g>
              </g>
            </g>
            <g class="color_RGBA{Float32}(0.0f0,0.74736935f0,1.0f0,1.0f0)" stroke="#FFFFFF" fill="rgba(0,190,255,1)" id="img-f816bb9b-108">
              <g class="marker" id="img-f816bb9b-109">
                <g transform="translate(28.4,35.69)">
                  <circle cx="0" cy="0" r="0.9" class="primitive"/>
                </g>
              </g>
            </g>
            <g class="color_RGBA{Float32}(0.0f0,0.74736935f0,1.0f0,1.0f0)" stroke="#FFFFFF" fill="rgba(0,190,255,1)" id="img-f816bb9b-110">
              <g class="marker" id="img-f816bb9b-111">
                <g transform="translate(26.14,21.34)">
                  <circle cx="0" cy="0" r="0.9" class="primitive"/>
                </g>
              </g>
            </g>
            <g class="color_RGBA{Float32}(0.0f0,0.74736935f0,1.0f0,1.0f0)" stroke="#FFFFFF" fill="rgba(0,190,255,1)" id="img-f816bb9b-112">
              <g class="marker" id="img-f816bb9b-113">
                <g transform="translate(23.89,21.34)">
                  <circle cx="0" cy="0" r="0.9" class="primitive"/>
                </g>
              </g>
            </g>
          </g>
        </g>
      </g>
    </g>
  </g>
  <g class="guide ylabels" font-size="2.82" font-family="'PT Sans Caption','Helvetica Neue','Helvetica',sans-serif" fill="rgba(108,96,107,1)" id="img-f816bb9b-114">
    <g transform="translate(18.63,78.71)">
      <g class="primitive">
        <text text-anchor="end" dy="0.35em">0</text>
      </g>
    </g>
    <g transform="translate(18.63,42.86)">
      <g class="primitive">
        <text text-anchor="end" dy="0.35em">50</text>
      </g>
    </g>
    <g transform="translate(18.63,7)">
      <g class="primitive">
        <text text-anchor="end" dy="0.35em">100</text>
      </g>
    </g>
  </g>
  <g font-size="3.88" font-family="'PT Sans','Helvetica Neue','Helvetica',sans-serif" fill="rgba(86,73,85,1)" stroke="#000000" stroke-opacity="0.000" id="img-f816bb9b-115">
    <g transform="translate(8.81,40.86)">
      <g class="primitive">
        <text text-anchor="middle" dy="0.35em" transform="rotate(-90,0, 2)">NN vs. Optimal (% not lost)</text>
      </g>
    </g>
  </g>
</g>
<defs>
  <clipPath id="img-f816bb9b-4">
    <path d="M19.63,5 L 136.42 5 136.42 80.72 19.63 80.72" />
  </clipPath>
</defs>
</svg>
